<svg xmlns="http://www.w3.org/2000/svg" version="1.1" xmlns:xlink="http://www.w3.org/1999/xlink" xmlns:svgjs="http://svgjs.com/svgjs" width="8192" height="6998.4"><svg version="1.1" id="SvgjsSvg1000" xmlns="http://www.w3.org/2000/svg" xmlns:xlink="http://www.w3.org/1999/xlink" x="0px" y="0px" viewBox="0 0 8192 6998.4" style="enable-background:new 0 0 8192 6998.4;" xml:space="preserve">
<path d="M4901.8,2821.3c-88.3,87.9-170.6,169.9-257.4,256.3c-34-33.9-72.6-72.4-111.2-111c-64.3-64.2-129.6-127.6-192.6-193.1
	c-39.1-40.7-85.1-60.2-140.9-58c-7.2,0.3-14.4,0-21.5,0c-887.9,0-1775.9,0-2663.8,0.2c-23.8,0-48.6-1.2-71.2,4.8
	c-37.7,10-49.9,46.5-28.4,79.4c9,13.8,22.1,25,33.9,36.8c612.5,612.2,1225.1,1224.3,1837.7,1836.3c11.8,11.8,23.4,24.3,36.8,34
	c35.5,25.5,71.7,25.6,106.1-0.7c17-13,31.3-29.4,46.6-44.6c435-434.5,869.7-869.3,1304.9-1303.5
	c336.9-336.1,674.4-671.6,1011.7-1007.3c27.1-27,59.9-49.5,82.2-79.8c81.4-110.8,203.9-135.3,326.2-158
	c93.1-17.3,144.3,24.4,171,129.5c92.2,363.4,184,727,276.1,1090.5c130.9,516.3,262.1,1032.5,392.9,1548.7
	c5.8,23.1,11.8,46.6,13.5,70.2c5.9,81.2-37,144.7-114.7,169.4c-36.4,11.5-73.8,20.1-111,28.7c-57.8,13.4-107.6,1.7-150.3-43.1
	c-66.1-69.1-135-135.7-202.7-203.3c-367.2-366.9-734.4-733.9-1102-1100.4c-18.5-18.5-41.4-32.6-68-53.2
	c91.1-93.3,172.2-176.3,258.7-264.8c21.3,20.6,39.8,38,57.8,55.9c253.9,253.6,507.7,507.2,761.6,760.8
	c13.5,13.5,26.8,27.3,40.9,40.3c18.3,16.9,38.2,30.8,64,15.6c25.8-15.1,34.5-36.5,26.2-66.7c-14.5-53-26-106.7-39.6-160
	c-118.7-467.6-237.5-935.2-356.5-1402.7c-6.5-25.4-11.4-51.7-21.7-75.6c-15.2-35.6-44.6-42.8-75.5-19.5
	c-17,12.8-31.2,29.6-46.4,44.8c-817.9,819.4-1635.7,1638.8-2453.4,2458.3c-37.3,37.4-73.1,75.5-132.5,76.2
	c-42.9,0.6-80.3-10-111.9-39.1c-14.1-13-27.2-26.9-40.8-40.4C2456.3,4353.9,1676.6,3574,895,2796c-51.6-51.4-79.3-104.1-74.6-176.3
	c3.1-47.6-1-95.7,1.1-143.4c3.2-74.5,42.4-112.9,117.2-117.7c16.7-1.1,33.5-0.3,50.3-0.3c1108.1,0,2216.3,0.7,3324.4-1.4
	c88.3-0.1,154.6,25.7,215.3,89.8C4650.4,2575.1,4778.1,2697.7,4901.8,2821.3z"></path>
</svg><style>@media (prefers-color-scheme: light) { :root { filter: none; } }
@media (prefers-color-scheme: dark) { :root { filter: invert(100%); } }
</style></svg>