<?xml version="1.0" encoding="UTF-8"?>
<svg id="Layer_2" data-name="Layer 2" xmlns="http://www.w3.org/2000/svg" viewBox="0 0 312.61 48.1">
  <defs>
    <style>
      .cls-1 {
        fill: #231f20;
        stroke: #fff;
        stroke-miterlimit: 10;
      }

      .cls-2 {
        fill: #fff;
        strokeWidth: 0px;
      }
    </style>
  </defs>
  <g id="Layer_1-2" data-name="Layer 1">
    <g>
      <path className="cls-2" d="M18.9,45.79v-27.88c0-5.63,1.67-10.02,5.02-13.17C27.27,1.59,31.92.01,37.86.01s10.59,1.58,13.94,4.72c3.35,3.15,5.02,7.54,5.02,13.17v27.88c0,1.42-.58,2.13-1.73,2.13s-1.8-.71-1.8-2.13v-28.08c0-4.61-1.34-8.17-4.03-10.68-2.68-2.51-6.49-3.76-11.41-3.76s-8.73,1.25-11.41,3.76c-2.68,2.51-4.03,6.07-4.03,10.68v28.08c0,1.42-.6,2.13-1.8,2.13s-1.73-.71-1.73-2.13Z"/>
      <circle className="cls-1" cx="20.48" cy="44.74" r="2.86"/>
      <circle className="cls-1" cx="55.09" cy="44.74" r="2.86"/>
      <path className="cls-2" d="M128.02,45.79v-27.88c0-5.63,1.67-10.02,5.02-13.17C136.39,1.59,141.04.01,146.99.01s10.59,1.58,13.94,4.72c3.35,3.15,5.02,7.54,5.02,13.17v27.88c0,1.42-.58,2.13-1.73,2.13s-1.8-.71-1.8-2.13v-28.08c0-4.61-1.34-8.17-4.03-10.68-2.68-2.51-6.49-3.76-11.41-3.76s-8.73,1.25-11.41,3.76c-2.68,2.51-4.03,6.07-4.03,10.68v28.08c0,1.42-.6,2.13-1.8,2.13s-1.73-.71-1.73-2.13Z"/>
      <circle className="cls-1" cx="129.8" cy="44.74" r="2.86"/>
      <circle className="cls-1" cx="164.02" cy="44.74" r="2.86"/>
      <path className="cls-2" d="M281.3,45.33c-1.35-1.29-2.03-3.08-2.03-5.39V8c0-2.31.68-4.1,2.03-5.39,1.35-1.29,3.25-1.93,5.69-1.93h20.63c.71,0,1.22.12,1.53.37.31.25.47.66.47,1.23,0,1.02-.67,1.53-2,1.53h-21.03c-1.15,0-2.07.37-2.76,1.1-.69.73-1.03,1.7-1.03,2.89v14.11h19.76c.71,0,1.22.12,1.53.37.31.25.47.66.47,1.23,0,1.02-.67,1.53-2,1.53h-19.76v15.1c0,1.2.34,2.16,1.03,2.89.69.73,1.61,1.1,2.76,1.1h22.49c.71,0,1.22.12,1.53.37.31.24.47.66.47,1.23,0,1.02-.67,1.53-2,1.53h-22.09c-2.44,0-4.34-.64-5.69-1.93Z"/>
      <circle className="cls-1" cx="309.25" cy="43.85" r="2.86"/>
      <circle className="cls-1" cx="308.31" cy="4.06" r="2.86"/>
      <circle className="cls-1" cx="302.52" cy="23.61" r="2.86"/>
      <path className="cls-2" d="M68.27,45.79V8c0-2.31.68-4.1,2.03-5.39,1.35-1.29,3.25-1.93,5.69-1.93h20.63c.71,0,1.22.12,1.53.37.31.25.47.66.47,1.23,0,1.02-.67,1.53-2,1.53h-21.03c-1.15,0-2.07.37-2.76,1.1-.69.73-1.03,1.7-1.03,2.89v14.77h19.76c.71,0,1.22.12,1.53.37.31.24.47.65.47,1.23,0,1.02-.67,1.53-2,1.53h-19.76v20.1c0,1.42-.6,2.13-1.8,2.13s-1.73-.71-1.73-2.13Z"/>
      <circle className="cls-1" cx="69.91" cy="44.74" r="2.86"/>
      <circle className="cls-1" cx="91.42" cy="24.41" r="2.86"/>
      <circle className="cls-1" cx="96.76" cy="4.08" r="2.86"/>
      <path className="cls-2" d="M1.6,45.79V2.14C1.6.72,2.17.01,3.33.01s1.8.71,1.8,2.13v43.65c0,1.42-.6,2.13-1.8,2.13s-1.73-.71-1.73-2.13Z"/>
      <circle className="cls-1" cx="3.43" cy="3.36" r="2.86"/>
      <circle className="cls-1" cx="3.36" cy="44.74" r="2.86"/>
      <path className="cls-2" d="M110.72,45.79V2.14c0-1.42.58-2.13,1.73-2.13s1.8.71,1.8,2.13v43.65c0,1.42-.6,2.13-1.8,2.13s-1.73-.71-1.73-2.13Z"/>
      <circle className="cls-1" cx="112.61" cy="3.36" r="2.86"/>
      <circle className="cls-1" cx="112.49" cy="44.74" r="2.86"/>
      <path className="cls-2" d="M232.32,45.33c-1.35-1.29-2.03-3.08-2.03-5.39V8c0-2.31.68-4.1,2.03-5.39,1.35-1.29,3.25-1.93,5.69-1.93h9.38c4.39,0,8.26.96,11.61,2.89,3.35,1.93,5.93,4.66,7.75,8.18,1.82,3.53,2.73,7.62,2.73,12.28s-.91,8.74-2.73,12.24c-1.82,3.5-4.39,6.21-7.72,8.12-3.33,1.91-7.21,2.86-11.64,2.86h-9.38c-2.44,0-4.34-.64-5.69-1.93ZM246.73,44.13c5.99,0,10.68-1.77,14.07-5.32s5.09-8.47,5.09-14.77c0-4.17-.76-7.77-2.29-10.81-1.53-3.04-3.74-5.37-6.62-6.99-2.88-1.62-6.3-2.43-10.25-2.43h-9.12c-1.15,0-2.07.37-2.76,1.1-.69.73-1.03,1.7-1.03,2.89v32.34c0,1.2.34,2.16,1.03,2.89.69.73,1.61,1.1,2.76,1.1h9.12Z"/>
      <circle className="cls-1" cx="232.33" cy="4.06" r="2.86"/>
      <circle className="cls-1" cx="232.14" cy="43.78" r="2.86"/>
      <path className="cls-2" d="M185.68,44.99c-3.53-1.95-6.34-4.75-8.45-8.38-2.11-3.64-3.16-7.85-3.16-12.64s1.05-9,3.16-12.64c2.11-3.64,4.92-6.43,8.45-8.38C189.21.99,193.08.01,197.29.01s8.08.98,11.61,2.93c3.53,1.95,6.34,4.75,8.45,8.38,2.11,3.64,3.16,7.85,3.16,12.64s-1.05,9.01-3.16,12.64c-2.11,3.64-4.92,6.43-8.45,8.38-3.53,1.95-7.4,2.93-11.61,2.93s-8.08-.97-11.61-2.93ZM207.27,42.27c2.97-1.6,5.33-3.96,7.09-7.09,1.75-3.13,2.63-6.86,2.63-11.21s-.88-8.08-2.63-11.21c-1.75-3.13-4.12-5.49-7.09-7.09-2.97-1.6-6.3-2.4-9.98-2.4s-7.01.8-9.98,2.4c-2.97,1.6-5.33,3.96-7.09,7.09-1.75,3.13-2.63,6.87-2.63,11.21s.88,8.08,2.63,11.21c1.75,3.13,4.11,5.49,7.09,7.09,2.97,1.6,6.3,2.4,9.98,2.4s7.01-.8,9.98-2.4Z"/>
    </g>
  </g>
</svg>